<svg width="27" height="27" viewBox="0 0 27 27" fill="none" xmlns="http://www.w3.org/2000/svg">
<path d="M18.3296 18.48L20.5696 16.24C20.8713 15.9421 21.2531 15.7381 21.6684 15.6529C22.0838 15.5677 22.515 15.6049 22.9096 15.76L25.6396 16.85C26.0385 17.0119 26.3804 17.2882 26.6224 17.6441C26.8645 18.0001 26.9957 18.4197 26.9996 18.85V23.85C26.9973 24.1428 26.9358 24.4321 26.8187 24.7005C26.7016 24.9688 26.5315 25.2107 26.3185 25.4116C26.1054 25.6125 25.854 25.7682 25.5792 25.8693C25.3044 25.9704 25.0121 26.0149 24.7196 26C5.58965 24.81 1.72965 8.61004 0.999646 2.41004C0.965758 2.10558 0.99672 1.79739 1.09049 1.50575C1.18427 1.21411 1.33873 0.945633 1.54371 0.717977C1.7487 0.49032 1.99956 0.308646 2.2798 0.184905C2.56004 0.0611637 2.86331 -0.00183916 3.16965 4.0869e-05H7.99965C8.43066 0.00131666 8.85143 0.131508 9.20784 0.37387C9.56426 0.616232 9.84001 0.959681 9.99965 1.36004L11.0896 4.09004C11.2499 4.48311 11.2908 4.91468 11.2072 5.33085C11.1236 5.74702 10.9192 6.12934 10.6196 6.43004L8.37965 8.67004C8.37965 8.67004 9.66965 17.4 18.3296 18.48Z" fill="#F36C25"/>
</svg>
