<svg width="28" height="28" viewBox="0 0 28 28" fill="none" xmlns="http://www.w3.org/2000/svg">
<path d="M14 0C6.26875 0 0 6.26875 0 14C0 21.7313 6.26875 28 14 28C21.7313 28 28 21.7313 28 14C28 6.26875 21.7313 0 14 0ZM15.1406 17.4625C13.7688 19.3937 11.0125 19.9562 8.8625 19.1281C6.70625 18.3062 5.175 16.0281 5.35938 13.7063C5.40625 10.8656 8.02188 8.375 10.8625 8.47188C12.225 8.40938 13.5062 9 14.55 9.83438C14.1031 10.3406 13.6437 10.8281 13.15 11.2812C11.8969 10.4156 10.1125 10.1687 8.85938 11.1687C7.06563 12.4094 6.98438 15.3375 8.70938 16.6719C10.3875 18.1938 13.5594 17.4375 14.025 15.1063C12.975 15.0906 11.9187 15.1062 10.8687 15.0719C10.8656 14.4437 10.8625 13.8188 10.8656 13.1906C12.6219 13.1844 14.3813 13.1812 16.1406 13.1969C16.2437 14.675 16.0469 16.2437 15.1406 17.4625ZM22.7188 14.7656C22.1938 14.7719 21.6687 14.775 21.1437 14.7781C21.1375 15.3031 21.1344 15.8281 21.1344 16.3531H19.5625C19.5562 15.8281 19.5562 15.3062 19.5531 14.7812C19.0281 14.775 18.5031 14.7719 17.9781 14.7656V13.2C18.5031 13.1937 19.0281 13.1906 19.5531 13.1906C19.5562 12.6656 19.5625 12.1406 19.5656 11.6156H21.1344L21.1437 13.1906C21.6687 13.1969 22.1938 13.1969 22.7188 13.2V14.7656Z" fill="#F36C25"/>
</svg>
