<svg width="28" height="28" viewBox="0 0 28 28" fill="none" xmlns="http://www.w3.org/2000/svg">
<circle cx="14" cy="14" r="14" fill="#F36C25"/>
<g clip-path="url(#clip0_3575_22988)">
<path d="M13.9987 7.33331C15.81 7.33331 16.036 7.33998 16.7467 7.37331C17.4567 7.40665 17.94 7.51798 18.3654 7.68331C18.8054 7.85265 19.176 8.08198 19.5467 8.45198C19.8857 8.78524 20.148 9.18837 20.3154 9.63331C20.48 10.058 20.592 10.542 20.6254 11.252C20.6567 11.9626 20.6654 12.1886 20.6654 14C20.6654 15.8113 20.6587 16.0373 20.6254 16.748C20.592 17.458 20.48 17.9413 20.3154 18.3666C20.1485 18.8118 19.8861 19.2151 19.5467 19.548C19.2133 19.8869 18.8102 20.1491 18.3654 20.3166C17.9407 20.4813 17.4567 20.5933 16.7467 20.6266C16.036 20.658 15.81 20.6666 13.9987 20.6666C12.1874 20.6666 11.9614 20.66 11.2507 20.6266C10.5407 20.5933 10.0574 20.4813 9.63203 20.3166C9.18692 20.1496 8.78372 19.8873 8.4507 19.548C8.11164 19.2148 7.84932 18.8116 7.68203 18.3666C7.5167 17.942 7.40536 17.458 7.37203 16.748C7.3407 16.0373 7.33203 15.8113 7.33203 14C7.33203 12.1886 7.3387 11.9626 7.37203 11.252C7.40536 10.5413 7.5167 10.0586 7.68203 9.63331C7.84886 9.1881 8.11123 8.78486 8.4507 8.45198C8.78381 8.1128 9.18698 7.85047 9.63203 7.68331C10.0574 7.51798 10.54 7.40665 11.2507 7.37331C11.9614 7.34198 12.1874 7.33331 13.9987 7.33331ZM13.9987 10.6666C13.1146 10.6666 12.2668 11.0178 11.6417 11.643C11.0166 12.2681 10.6654 13.1159 10.6654 14C10.6654 14.884 11.0166 15.7319 11.6417 16.357C12.2668 16.9821 13.1146 17.3333 13.9987 17.3333C14.8828 17.3333 15.7306 16.9821 16.3557 16.357C16.9808 15.7319 17.332 14.884 17.332 14C17.332 13.1159 16.9808 12.2681 16.3557 11.643C15.7306 11.0178 14.8828 10.6666 13.9987 10.6666ZM18.332 10.5C18.332 10.279 18.2442 10.067 18.088 9.91072C17.9317 9.75444 17.7197 9.66665 17.4987 9.66665C17.2777 9.66665 17.0657 9.75444 16.9094 9.91072C16.7532 10.067 16.6654 10.279 16.6654 10.5C16.6654 10.721 16.7532 10.933 16.9094 11.0892C17.0657 11.2455 17.2777 11.3333 17.4987 11.3333C17.7197 11.3333 17.9317 11.2455 18.088 11.0892C18.2442 10.933 18.332 10.721 18.332 10.5ZM13.9987 12C14.5291 12 15.0378 12.2107 15.4129 12.5858C15.788 12.9608 15.9987 13.4695 15.9987 14C15.9987 14.5304 15.788 15.0391 15.4129 15.4142C15.0378 15.7893 14.5291 16 13.9987 16C13.4683 16 12.9596 15.7893 12.5845 15.4142C12.2094 15.0391 11.9987 14.5304 11.9987 14C11.9987 13.4695 12.2094 12.9608 12.5845 12.5858C12.9596 12.2107 13.4683 12 13.9987 12Z" fill="black"/>
</g>
<defs>
<clipPath id="clip0_3575_22988">
<rect width="16" height="16" fill="white" transform="translate(6 6)"/>
</clipPath>
</defs>
</svg>
