<svg width="105" height="106" viewBox="0 0 105 106" fill="none" xmlns="http://www.w3.org/2000/svg">
<path d="M31.4512 39.1646H39.8808V30.7271H31.4512V39.1646ZM36.0862 31.5709H39.037V34.5229H36.0862V31.5709ZM36.0862 35.3678H39.037V38.322H36.0862V35.3678ZM32.2927 31.5709H35.2424V34.5229H32.2927V31.5709ZM32.2927 35.3678H35.2424V38.322H32.2927V35.3678ZM50.629 39.1646H56.5297V30.7271H50.629V39.1646ZM54.0018 31.5709H55.6893V34.5229H54.0018V31.5709ZM54.0018 35.3678H55.6893V38.322H54.0018V35.3678ZM51.4728 31.5709H53.1569V34.5229H51.4728V31.5709ZM51.4728 35.3678H53.1569V38.322H51.4728V35.3678ZM56.1393 51.8659H47.7108V60.3045H56.1393V51.8659ZM51.5032 59.4596H48.5523V56.5076H51.5032V59.4596ZM51.5032 55.6639H48.5523V52.7096H51.5032V55.6639ZM55.2967 59.4596H52.3447V56.5076H55.2967V59.4596ZM55.2967 55.6639H52.3447V52.7096H55.2967V55.6639Z" fill="white"/>
<path d="M85.5795 56.1128C85.5075 56.1353 84.9866 56.2894 84.4894 56.6449C84.2431 56.47 83.9759 56.3268 83.694 56.2185V54.5513L83.0224 54.7425C82.6326 54.8597 82.2644 55.0394 81.9322 55.2746C81.6012 55.0396 81.2342 54.8599 80.8455 54.7425L80.1739 54.5513V55.8023L79.563 55.9733C79.4921 55.9969 78.9701 56.1499 78.4729 56.5065C78.3412 56.4147 78.2037 56.3317 78.0611 56.2579V41.112C78.1455 41.1694 78.2152 41.2054 78.3052 41.2684C83.2418 44.6963 83.9336 38.8991 83.3936 36.8527C82.3654 32.9422 85.2026 31.9894 85.9845 28.7348C87.3716 22.9455 82.758 19.7888 84.1834 14.2628C85.6133 8.73788 80.9018 -3.40537 74.8268 5.29763C72.8198 8.17425 70.3571 3.00938 67.1835 7.45313C64.0087 11.8946 65.6558 15.7331 66.6323 18.6334C68.5774 24.3979 64.6815 26.2665 67.2364 31.0928C69.7912 35.9168 66.1204 38.2421 70.932 40.9331C72.5014 41.8095 73.3024 41.7803 73.8457 41.4686V46.1835L60.9566 42.6184V25.4531H64.1167L54.633 19.4119V12.7969H55.6882V10.6875H48.3105V12.7969H49.3658V16.0549L40.9361 10.6875L19.8593 25.4531H23.0194V43.182L18.75 46.6369H23.0194V65.5313H18.8051V69.75H86.1352V65.5313H84.6941V60.4373H84.9022C85.2599 60.437 85.6028 60.2947 85.8557 60.0418C86.1086 59.7889 86.2508 59.446 86.2511 59.0884V55.9238L85.5795 56.1128ZM81.5734 22.5428C82.1355 22.5428 82.6746 22.7661 83.0721 23.1635C83.4696 23.561 83.6929 24.1001 83.6929 24.6623C83.6929 25.2244 83.4696 25.7635 83.0721 26.161C82.6746 26.5584 82.1355 26.7817 81.5734 26.7817C80.4011 26.7817 82.2405 25.8311 82.2405 24.6623C82.2405 23.4911 80.4011 22.5428 81.5734 22.5428ZM79.7396 11.1645C79.9273 11.1645 80.113 11.2015 80.2864 11.2733C80.4597 11.3451 80.6172 11.4503 80.7499 11.583C80.8826 11.7156 80.9878 11.8731 81.0596 12.0465C81.1314 12.2198 81.1684 12.4056 81.1684 12.5933C81.1684 12.7809 81.1314 12.9667 81.0596 13.14C80.9878 13.3134 80.8826 13.4709 80.7499 13.6035C80.6172 13.7362 80.4597 13.8414 80.2864 13.9132C80.113 13.985 79.9273 14.022 79.7396 14.022C78.9521 14.022 80.1255 13.383 80.1255 12.5933C80.1255 11.8035 78.9521 11.1645 79.7396 11.1645ZM79.7216 34.4183C80.1411 34.4183 80.5435 34.5849 80.8401 34.8815C81.1367 35.1782 81.3034 35.5805 81.3034 36C81.3034 36.4195 81.1367 36.8218 80.8401 37.1185C80.5435 37.4151 80.1411 37.5817 79.7216 37.5817C78.8464 37.5817 79.7216 36.8764 79.7216 36C79.7216 35.1259 78.8464 34.4183 79.7216 34.4183ZM48.3127 25.4531H58.8484V42.3281H48.3127V25.4531ZM25.1287 25.4531H46.2034V42.3281H25.1287V25.4531ZM38.3407 59.5586C38.1768 59.5586 38.0196 59.4935 37.9036 59.3776C37.7877 59.2616 37.7226 59.1044 37.7226 58.9404C37.7226 58.7765 37.7877 58.6192 37.9036 58.5033C38.0196 58.3874 38.1768 58.3223 38.3407 58.3223C38.5047 58.3223 38.6619 58.3874 38.7779 58.5033C38.8938 58.6192 38.9589 58.7765 38.9589 58.9404C38.9589 59.1044 38.8938 59.2616 38.7779 59.3776C38.6619 59.4935 38.5047 59.5586 38.3407 59.5586ZM59.7574 65.5313H39.7808V53.9955H40.6054V52.3474H30.7256V53.9955H31.5469V65.5313H25.1287V46.6369H59.7574V65.5313ZM67.1846 59.4596H66.1496V56.5076H67.0811V58.95C67.0811 59.1311 67.1194 59.3021 67.1846 59.4596ZM66.1496 55.6639V52.7096H67.836V55.6639H66.1496ZM67.6087 56.4818C67.6087 56.4818 68.3546 56.6944 68.8406 57.1995C69.3289 56.6955 70.0748 56.4818 70.0748 56.4818V58.95C70.0749 59.0581 70.0537 59.1653 70.0125 59.2652C69.9712 59.3652 69.9107 59.4561 69.8344 59.5326C69.758 59.6092 69.6673 59.67 69.5674 59.7115C69.4676 59.753 69.3605 59.7745 69.2524 59.7746H68.4311C68.3231 59.7745 68.2161 59.753 68.1164 59.7115C68.0167 59.6699 67.9261 59.6091 67.8499 59.5325C67.7738 59.4559 67.7134 59.365 67.6724 59.2651C67.6314 59.1651 67.6106 59.058 67.611 58.95V56.4818H67.6087ZM68.6348 65.5313H61.8667V46.6369H69.5865V56.0993C69.3228 56.2055 69.0725 56.3421 68.8406 56.5065C68.7866 56.4683 68.7315 56.4379 68.6764 56.4053V51.8648H62.7757V60.3034H68.6348V65.5313ZM63.6195 55.6639V52.7096H65.3047V55.6639H63.6195ZM65.3047 56.5076V59.4596H63.6195V56.5076H65.3047ZM69.5865 65.5313H69.0465V62.2024C69.1725 62.4285 69.357 62.6119 69.5865 62.7356V65.5313ZM70.8465 65.5313H70.437V62.9066H70.8465V65.5313ZM71.031 62.379H70.2075C70.0996 62.3792 69.9926 62.358 69.8929 62.3168C69.7931 62.2756 69.7024 62.2151 69.6261 62.1389C69.5497 62.0626 69.4891 61.972 69.4477 61.8723C69.4064 61.7726 69.3851 61.6657 69.3851 61.5578V60.2741C69.5924 60.2536 69.7919 60.1841 69.9671 60.0715C70.1424 59.9588 70.2884 59.8062 70.3931 59.6261C70.4696 59.6858 70.5506 59.7341 70.6192 59.805C71.1052 59.301 71.8522 59.0906 71.8522 59.0906V61.5566C71.8524 61.6646 71.8313 61.7715 71.7901 61.8713C71.7489 61.971 71.6884 62.0617 71.6121 62.1381C71.5358 62.2144 71.4453 62.275 71.3455 62.3164C71.2458 62.3577 71.1389 62.379 71.031 62.379ZM72.0941 65.5313H71.6959V62.7041C71.8556 62.6119 71.9861 62.4926 72.0941 62.3486V65.5313ZM71.8691 58.536C71.6548 58.5313 71.4509 58.443 71.3008 58.29C71.1507 58.137 71.0664 57.9313 71.0659 57.717V55.2476C71.0659 55.2476 71.8129 55.4591 72.3 55.9654C72.7871 55.4603 73.5341 55.2476 73.5341 55.2476V57.717C73.5341 57.825 73.5129 57.9319 73.4715 58.0317C73.4302 58.1315 73.3696 58.2221 73.2933 58.2985C73.2169 58.3749 73.1262 58.4354 73.0265 58.4768C72.9267 58.5181 72.8197 58.5394 72.7118 58.5394H72.381V58.3909L71.8691 58.536ZM73.848 65.5313H72.5048V59.0681H72.7118C73.0481 59.0681 73.3463 58.932 73.5836 58.7273V59.0873C73.5836 59.3764 73.6939 59.6284 73.848 59.8478V65.5313ZM73.848 54.6131L73.389 54.7425C72.9995 54.8596 72.6317 55.0393 72.3 55.2746C72.1102 55.1406 71.9079 55.0254 71.6959 54.9304V46.6369H73.848V54.6131ZM80.2357 58.95V58.0163C80.3134 58.3515 80.5069 58.6305 80.7836 58.8161C80.6063 58.9009 80.4366 59.0006 80.2762 59.1143C80.2537 59.0996 80.2324 59.0884 80.2099 59.0726C80.2155 59.0321 80.2357 58.9939 80.2357 58.95ZM74.2249 20.8429C74.2249 21.7181 75.0968 22.4246 74.2249 22.4246C73.8054 22.4246 73.403 22.258 73.1064 21.9613C72.8098 21.6647 72.6431 21.2624 72.6431 20.8429C72.6431 20.4234 72.8098 20.021 73.1064 19.7244C73.403 19.4278 73.8054 19.2611 74.2249 19.2611C75.0968 19.2611 74.2249 19.9699 74.2249 20.8429ZM74.181 9.02138C75.3622 9.02138 73.605 9.98213 73.605 11.1645C73.605 12.3469 75.3622 13.3065 74.181 13.3065C73.8955 13.313 73.6116 13.2625 73.3459 13.1577C73.0802 13.053 72.8382 12.8962 72.6339 12.6966C72.4297 12.497 72.2674 12.2586 72.1566 11.9954C72.0459 11.7322 71.9888 11.4495 71.9888 11.1639C71.9888 10.8784 72.0459 10.5957 72.1566 10.3325C72.2674 10.0693 72.4297 9.83086 72.6339 9.63126C72.8382 9.43166 73.0802 9.27488 73.3459 9.17015C73.6116 9.06541 73.8955 9.01483 74.181 9.02138ZM69.2029 16.596C69.2029 15.723 69.9127 15.0142 70.7846 15.0142C71.6554 15.0142 70.5214 15.723 70.5214 16.596C70.5214 17.4724 71.6565 18.1789 70.7846 18.1789C70.5768 18.1789 70.371 18.1379 70.1791 18.0584C69.9871 17.9788 69.8127 17.8622 69.6658 17.7152C69.5189 17.5682 69.4024 17.3937 69.323 17.2017C69.2435 17.0096 69.2027 16.8038 69.2029 16.596ZM73.2394 31.3976C72.4001 31.3976 71.5951 31.0642 71.0016 30.4707C70.4082 29.8772 70.0748 29.0723 70.0748 28.233C70.0748 27.3937 70.4082 26.5888 71.0016 25.9953C71.5951 25.4018 72.4001 25.0684 73.2394 25.0684C74.9865 25.0684 72.5497 26.4859 72.5497 28.233C72.5497 29.9801 74.9854 31.3976 73.2394 31.3976ZM75.4725 65.5313H75.063V60.4373H75.4725V65.5313ZM76.5761 59.0873C76.5761 59.5429 76.2083 59.9085 75.7549 59.9085H74.9336C74.8257 59.9086 74.7188 59.8875 74.619 59.8463C74.5192 59.8051 74.4286 59.7446 74.3522 59.6684C74.2758 59.5921 74.2152 59.5015 74.1739 59.4018C74.1325 59.3021 74.1112 59.1952 74.1112 59.0873V56.6213C74.1112 56.6213 74.8571 56.8316 75.3454 57.3368C75.8314 56.8316 76.5784 56.6213 76.5784 56.6213V59.0873H76.5761ZM77.2421 58.95V56.4818C77.2421 56.4818 77.988 56.6944 78.4751 57.2006C78.9622 56.6955 79.7093 56.4818 79.7093 56.4818V58.95C79.7094 59.0581 79.6882 59.1653 79.647 59.2652C79.6057 59.3652 79.5452 59.4561 79.4688 59.5326C79.3925 59.6092 79.3018 59.67 79.2019 59.7115C79.1021 59.753 78.995 59.7745 78.8869 59.7746H78.0668C77.9584 59.7748 77.8511 59.7535 77.751 59.7122C77.6509 59.6708 77.5599 59.61 77.4833 59.5334C77.4067 59.4568 77.346 59.3659 77.3046 59.2658C77.2632 59.1656 77.242 59.0583 77.2421 58.95ZM78.2715 65.5313H78.0622V60.3034H78.2715V65.5313ZM80.0704 65.5313H78.6821V62.1709C78.7926 62.3909 78.9617 62.5763 79.1707 62.7065C79.3797 62.8367 79.6205 62.9067 79.8667 62.9089H80.0715V65.5313H80.0704ZM79.8656 62.3813C79.6471 62.381 79.4377 62.2939 79.2833 62.1393C79.1289 61.9847 79.0421 61.7751 79.0421 61.5566V60.2696C79.4707 60.219 79.8274 59.9726 80.0355 59.6183C80.1165 59.6813 80.2031 59.7285 80.2774 59.805C80.7645 59.301 81.5115 59.0873 81.5115 59.0873V61.5555C81.5116 61.6636 81.4905 61.7708 81.4492 61.8707C81.408 61.9707 81.3475 62.0616 81.2711 62.1381C81.1947 62.2147 81.104 62.2755 81.0042 62.317C80.9043 62.3585 80.7973 62.38 80.6891 62.3801H79.8656V62.3813ZM81.7286 65.5313H80.481V62.9089H80.688C81.1166 62.9089 81.4822 62.694 81.7297 62.3813V65.5313H81.7286ZM81.5228 58.5405C81.4149 58.5405 81.308 58.5192 81.2084 58.4779C81.1087 58.4365 81.0182 58.3759 80.942 58.2995C80.8659 58.2231 80.8055 58.1324 80.7644 58.0327C80.7233 57.9329 80.7023 57.826 80.7026 57.7181V55.2488C80.7026 55.2488 81.4462 55.4603 81.9334 55.9654C82.4205 55.4614 83.1675 55.2488 83.1675 55.2488V57.7181C83.1676 57.8262 83.1465 57.9332 83.1052 58.033C83.0639 58.1329 83.0034 58.2236 82.927 58.3C82.8506 58.3764 82.7598 58.4369 82.66 58.4782C82.5602 58.5195 82.4532 58.5406 82.3451 58.5405H81.5228ZM84.2835 65.5313H82.1393V59.0681H82.3451C82.4813 59.0681 82.605 59.0299 82.7299 58.9916V59.0884C82.7302 59.4462 82.8725 59.7893 83.1257 60.0422C83.3788 60.2952 83.722 60.4373 84.0799 60.4373H84.2846V65.5313H84.2835ZM85.7224 59.0873C85.7224 59.5429 85.3545 59.9085 84.9011 59.9085H84.0788C83.9708 59.9086 83.8639 59.8875 83.7641 59.8463C83.6644 59.8051 83.5737 59.7446 83.4973 59.6684C83.4209 59.5921 83.3603 59.5015 83.319 59.4018C83.2777 59.3021 83.2564 59.1952 83.2564 59.0873V58.7003C83.5219 58.4516 83.6951 58.1074 83.6951 57.717V56.7945C83.9905 56.9258 84.2599 57.1091 84.4905 57.3356C84.9765 56.8305 85.7235 56.6201 85.7235 56.6201V59.0873H85.7224Z" fill="white"/>
<path d="M0.742 102V100.516H2.03V93.712H0.742V92.228H5.18V93.712H3.878V100.516H5.18V102H0.742ZM6.95592 102V94.692H8.74792V95.91H8.81792C8.96726 95.518 9.20059 95.1913 9.51792 94.93C9.84459 94.6593 10.2926 94.524 10.8619 94.524C11.6179 94.524 12.1966 94.7713 12.5979 95.266C12.9993 95.7607 13.1999 96.4653 13.1999 97.38V102H11.4079V97.562C11.4079 97.0393 11.3146 96.6473 11.1279 96.386C10.9413 96.1247 10.6333 95.994 10.2039 95.994C10.0173 95.994 9.83526 96.022 9.65792 96.078C9.48992 96.1247 9.33592 96.1993 9.19592 96.302C9.06526 96.3953 8.95792 96.5167 8.87392 96.666C8.78992 96.806 8.74792 96.974 8.74792 97.17V102H6.95592ZM17.4684 102C16.8524 102 16.3811 101.841 16.0544 101.524C15.7371 101.197 15.5784 100.735 15.5784 100.138V96.12H14.5004V94.692H15.0604C15.3311 94.692 15.5131 94.6313 15.6064 94.51C15.7091 94.3793 15.7604 94.188 15.7604 93.936V92.69H17.3704V94.692H18.8684V96.12H17.3704V100.572H18.7564V102H17.4684ZM23.322 102.168C22.7807 102.168 22.2954 102.079 21.866 101.902C21.446 101.715 21.0867 101.459 20.788 101.132C20.4987 100.796 20.2747 100.395 20.116 99.928C19.9574 99.452 19.878 98.92 19.878 98.332C19.878 97.7533 19.9527 97.2307 20.102 96.764C20.2607 96.2973 20.4847 95.9007 20.774 95.574C21.0634 95.238 21.418 94.9813 21.838 94.804C22.258 94.6173 22.734 94.524 23.266 94.524C23.8354 94.524 24.33 94.622 24.75 94.818C25.17 95.014 25.5154 95.28 25.786 95.616C26.0567 95.952 26.2574 96.344 26.388 96.792C26.528 97.2307 26.598 97.702 26.598 98.206V98.794H21.74V98.976C21.74 99.508 21.8894 99.9373 22.188 100.264C22.4867 100.581 22.93 100.74 23.518 100.74C23.966 100.74 24.33 100.647 24.61 100.46C24.8994 100.273 25.156 100.035 25.38 99.746L26.346 100.824C26.0474 101.244 25.6367 101.575 25.114 101.818C24.6007 102.051 24.0034 102.168 23.322 102.168ZM23.294 95.868C22.818 95.868 22.44 96.0267 22.16 96.344C21.88 96.6613 21.74 97.072 21.74 97.576V97.688H24.736V97.562C24.736 97.058 24.61 96.652 24.358 96.344C24.1154 96.0267 23.7607 95.868 23.294 95.868ZM28.1747 102V94.692H29.9667V96.204H30.0367C30.0833 96.008 30.1533 95.8213 30.2467 95.644C30.3493 95.4573 30.48 95.294 30.6387 95.154C30.7973 95.014 30.984 94.902 31.1987 94.818C31.4227 94.734 31.6793 94.692 31.9687 94.692H32.3607V96.386H31.8007C31.194 96.386 30.7367 96.4747 30.4287 96.652C30.1207 96.8293 29.9667 97.1187 29.9667 97.52V102H28.1747ZM34.5668 93.628C34.1934 93.628 33.9228 93.544 33.7548 93.376C33.5961 93.208 33.5168 92.9933 33.5168 92.732V92.452C33.5168 92.1907 33.5961 91.976 33.7548 91.808C33.9228 91.64 34.1934 91.556 34.5668 91.556C34.9308 91.556 35.1968 91.64 35.3648 91.808C35.5328 91.976 35.6168 92.1907 35.6168 92.452V92.732C35.6168 92.9933 35.5328 93.208 35.3648 93.376C35.1968 93.544 34.9308 93.628 34.5668 93.628ZM33.6708 94.692H35.4628V102H33.6708V94.692ZM40.4379 102.168C39.9152 102.168 39.4439 102.079 39.0239 101.902C38.6132 101.725 38.2586 101.468 37.9599 101.132C37.6706 100.796 37.4466 100.395 37.2879 99.928C37.1292 99.452 37.0499 98.92 37.0499 98.332C37.0499 97.744 37.1292 97.2167 37.2879 96.75C37.4466 96.2833 37.6706 95.8867 37.9599 95.56C38.2586 95.224 38.6132 94.9673 39.0239 94.79C39.4439 94.6127 39.9152 94.524 40.4379 94.524C40.9606 94.524 41.4319 94.6127 41.8519 94.79C42.2719 94.9673 42.6266 95.224 42.9159 95.56C43.2146 95.8867 43.4432 96.2833 43.6019 96.75C43.7606 97.2167 43.8399 97.744 43.8399 98.332C43.8399 98.92 43.7606 99.452 43.6019 99.928C43.4432 100.395 43.2146 100.796 42.9159 101.132C42.6266 101.468 42.2719 101.725 41.8519 101.902C41.4319 102.079 40.9606 102.168 40.4379 102.168ZM40.4379 100.726C40.9139 100.726 41.2872 100.581 41.5579 100.292C41.8286 100.003 41.9639 99.578 41.9639 99.018V97.66C41.9639 97.1093 41.8286 96.6893 41.5579 96.4C41.2872 96.1107 40.9139 95.966 40.4379 95.966C39.9712 95.966 39.6026 96.1107 39.3319 96.4C39.0612 96.6893 38.9259 97.1093 38.9259 97.66V99.018C38.9259 99.578 39.0612 100.003 39.3319 100.292C39.6026 100.581 39.9712 100.726 40.4379 100.726ZM45.4286 102V94.692H47.2206V96.204H47.2906C47.3372 96.008 47.4072 95.8213 47.5006 95.644C47.6032 95.4573 47.7339 95.294 47.8926 95.154C48.0512 95.014 48.2379 94.902 48.4526 94.818C48.6766 94.734 48.9332 94.692 49.2226 94.692H49.6146V96.386H49.0546C48.4479 96.386 47.9906 96.4747 47.6826 96.652C47.3746 96.8293 47.2206 97.1187 47.2206 97.52V102H45.4286ZM54.3453 92.228H57.9013C58.5359 92.228 59.1099 92.3307 59.6233 92.536C60.1459 92.7413 60.5893 93.0493 60.9533 93.46C61.3266 93.8613 61.6113 94.37 61.8073 94.986C62.0126 95.5927 62.1153 96.302 62.1153 97.114C62.1153 97.926 62.0126 98.64 61.8073 99.256C61.6113 99.8627 61.3266 100.371 60.9533 100.782C60.5893 101.183 60.1459 101.487 59.6233 101.692C59.1099 101.897 58.5359 102 57.9013 102H54.3453V92.228ZM57.9013 100.362C58.5919 100.362 59.1379 100.161 59.5393 99.76C59.9499 99.3493 60.1553 98.724 60.1553 97.884V96.344C60.1553 95.504 59.9499 94.8833 59.5393 94.482C59.1379 94.0713 58.5919 93.866 57.9013 93.866H56.1933V100.362H57.9013ZM66.8396 102.168C66.2983 102.168 65.8129 102.079 65.3836 101.902C64.9636 101.715 64.6043 101.459 64.3056 101.132C64.0163 100.796 63.7923 100.395 63.6336 99.928C63.4749 99.452 63.3956 98.92 63.3956 98.332C63.3956 97.7533 63.4703 97.2307 63.6196 96.764C63.7783 96.2973 64.0023 95.9007 64.2916 95.574C64.5809 95.238 64.9356 94.9813 65.3556 94.804C65.7756 94.6173 66.2516 94.524 66.7836 94.524C67.3529 94.524 67.8476 94.622 68.2676 94.818C68.6876 95.014 69.0329 95.28 69.3036 95.616C69.5743 95.952 69.7749 96.344 69.9056 96.792C70.0456 97.2307 70.1156 97.702 70.1156 98.206V98.794H65.2576V98.976C65.2576 99.508 65.4069 99.9373 65.7056 100.264C66.0043 100.581 66.4476 100.74 67.0356 100.74C67.4836 100.74 67.8476 100.647 68.1276 100.46C68.4169 100.273 68.6736 100.035 68.8976 99.746L69.8636 100.824C69.5649 101.244 69.1543 101.575 68.6316 101.818C68.1183 102.051 67.5209 102.168 66.8396 102.168ZM66.8116 95.868C66.3356 95.868 65.9576 96.0267 65.6776 96.344C65.3976 96.6613 65.2576 97.072 65.2576 97.576V97.688H68.2536V97.562C68.2536 97.058 68.1276 96.652 67.8756 96.344C67.6329 96.0267 67.2783 95.868 66.8116 95.868ZM74.0863 102.168C73.3863 102.168 72.7983 102.051 72.3223 101.818C71.8463 101.575 71.4263 101.244 71.0623 100.824L72.1543 99.76C72.4249 100.068 72.7189 100.311 73.0363 100.488C73.3629 100.665 73.7363 100.754 74.1562 100.754C74.5856 100.754 74.8936 100.679 75.0803 100.53C75.2763 100.381 75.3743 100.175 75.3743 99.914C75.3743 99.6993 75.3043 99.5313 75.1643 99.41C75.0336 99.2793 74.8049 99.1907 74.4783 99.144L73.7503 99.046C72.9569 98.9433 72.3503 98.7193 71.9303 98.374C71.5196 98.0193 71.3143 97.506 71.3143 96.834C71.3143 96.4793 71.3796 96.162 71.5103 95.882C71.6409 95.5927 71.8276 95.35 72.0703 95.154C72.3129 94.9487 72.6023 94.7947 72.9383 94.692C73.2836 94.58 73.6663 94.524 74.0863 94.524C74.4409 94.524 74.7536 94.552 75.0243 94.608C75.3043 94.6547 75.5563 94.7293 75.7803 94.832C76.0043 94.9253 76.2096 95.0467 76.3963 95.196C76.5829 95.336 76.7649 95.4947 76.9423 95.672L75.8923 96.722C75.6776 96.498 75.4209 96.3113 75.1223 96.162C74.8236 96.0127 74.4969 95.938 74.1423 95.938C73.7503 95.938 73.4656 96.008 73.2883 96.148C73.1203 96.288 73.0363 96.47 73.0363 96.694C73.0363 96.9367 73.1063 97.1233 73.2463 97.254C73.3956 97.3753 73.6429 97.464 73.9883 97.52L74.7303 97.618C76.3076 97.842 77.0963 98.5607 77.0963 99.774C77.0963 100.129 77.0216 100.455 76.8723 100.754C76.7323 101.043 76.5316 101.295 76.2703 101.51C76.0089 101.715 75.6916 101.879 75.3183 102C74.9543 102.112 74.5436 102.168 74.0863 102.168ZM79.5746 93.628C79.2012 93.628 78.9306 93.544 78.7626 93.376C78.6039 93.208 78.5246 92.9933 78.5246 92.732V92.452C78.5246 92.1907 78.6039 91.976 78.7626 91.808C78.9306 91.64 79.2012 91.556 79.5746 91.556C79.9386 91.556 80.2046 91.64 80.3726 91.808C80.5406 91.976 80.6246 92.1907 80.6246 92.452V92.732C80.6246 92.9933 80.5406 93.208 80.3726 93.376C80.2046 93.544 79.9386 93.628 79.5746 93.628ZM78.6786 94.692H80.4706V102H78.6786V94.692ZM89.1417 102.616C89.1417 102.999 89.0717 103.335 88.9317 103.624C88.8011 103.923 88.5817 104.17 88.2737 104.366C87.9657 104.562 87.5691 104.711 87.0837 104.814C86.5984 104.917 86.0057 104.968 85.3057 104.968C84.6897 104.968 84.1671 104.926 83.7377 104.842C83.3084 104.767 82.9537 104.655 82.6737 104.506C82.4031 104.366 82.2071 104.189 82.0857 103.974C81.9644 103.759 81.9037 103.517 81.9037 103.246C81.9037 102.835 82.0157 102.513 82.2397 102.28C82.4731 102.056 82.7951 101.911 83.2057 101.846V101.692C82.9071 101.617 82.6737 101.473 82.5057 101.258C82.3471 101.034 82.2677 100.773 82.2677 100.474C82.2677 100.287 82.3051 100.124 82.3797 99.984C82.4544 99.8347 82.5524 99.7087 82.6737 99.606C82.8044 99.5033 82.9491 99.4193 83.1077 99.354C83.2664 99.2793 83.4344 99.2233 83.6117 99.186V99.13C83.1637 98.9247 82.8277 98.64 82.6037 98.276C82.3891 97.912 82.2817 97.4873 82.2817 97.002C82.2817 96.2553 82.5384 95.658 83.0517 95.21C83.5651 94.7527 84.3164 94.524 85.3057 94.524C85.5297 94.524 85.7491 94.538 85.9637 94.566C86.1877 94.594 86.3931 94.6407 86.5797 94.706V94.468C86.5797 93.7587 86.9251 93.404 87.6157 93.404H88.7497V94.776H87.1957V94.972C87.5784 95.1867 87.8631 95.4667 88.0497 95.812C88.2364 96.1573 88.3297 96.554 88.3297 97.002C88.3297 97.7393 88.0731 98.332 87.5597 98.78C87.0557 99.228 86.3044 99.452 85.3057 99.452C84.8764 99.452 84.5031 99.41 84.1857 99.326C84.0457 99.3913 83.9244 99.48 83.8217 99.592C83.7191 99.6947 83.6677 99.8253 83.6677 99.984C83.6677 100.348 83.9851 100.53 84.6197 100.53H86.5797C87.4757 100.53 88.1244 100.717 88.5257 101.09C88.9364 101.454 89.1417 101.963 89.1417 102.616ZM87.4617 102.826C87.4617 102.593 87.3684 102.411 87.1817 102.28C86.9951 102.149 86.6731 102.084 86.2157 102.084H83.7237C83.4717 102.271 83.3457 102.523 83.3457 102.84C83.3457 103.12 83.4624 103.339 83.6957 103.498C83.9291 103.657 84.3257 103.736 84.8857 103.736H85.7817C86.3697 103.736 86.7944 103.661 87.0557 103.512C87.3264 103.363 87.4617 103.134 87.4617 102.826ZM85.3057 98.234C86.1831 98.234 86.6217 97.8607 86.6217 97.114V96.876C86.6217 96.1293 86.1831 95.756 85.3057 95.756C84.4284 95.756 83.9897 96.1293 83.9897 96.876V97.114C83.9897 97.8607 84.4284 98.234 85.3057 98.234ZM90.1766 102V94.692H91.9686V95.91H92.0386C92.188 95.518 92.4213 95.1913 92.7386 94.93C93.0653 94.6593 93.5133 94.524 94.0826 94.524C94.8386 94.524 95.4173 94.7713 95.8186 95.266C96.22 95.7607 96.4206 96.4653 96.4206 97.38V102H94.6286V97.562C94.6286 97.0393 94.5353 96.6473 94.3486 96.386C94.162 96.1247 93.854 95.994 93.4246 95.994C93.238 95.994 93.056 96.022 92.8786 96.078C92.7106 96.1247 92.5566 96.1993 92.4166 96.302C92.286 96.3953 92.1786 96.5167 92.0946 96.666C92.0106 96.806 91.9686 96.974 91.9686 97.17V102H90.1766ZM100.801 102.168C100.101 102.168 99.5131 102.051 99.0371 101.818C98.5611 101.575 98.1411 101.244 97.7771 100.824L98.8691 99.76C99.1398 100.068 99.4338 100.311 99.7511 100.488C100.078 100.665 100.451 100.754 100.871 100.754C101.3 100.754 101.608 100.679 101.795 100.53C101.991 100.381 102.089 100.175 102.089 99.914C102.089 99.6993 102.019 99.5313 101.879 99.41C101.748 99.2793 101.52 99.1907 101.193 99.144L100.465 99.046C99.6718 98.9433 99.0651 98.7193 98.6451 98.374C98.2344 98.0193 98.0291 97.506 98.0291 96.834C98.0291 96.4793 98.0944 96.162 98.2251 95.882C98.3558 95.5927 98.5424 95.35 98.7851 95.154C99.0278 94.9487 99.3171 94.7947 99.6531 94.692C99.9984 94.58 100.381 94.524 100.801 94.524C101.156 94.524 101.468 94.552 101.739 94.608C102.019 94.6547 102.271 94.7293 102.495 94.832C102.719 94.9253 102.924 95.0467 103.111 95.196C103.298 95.336 103.48 95.4947 103.657 95.672L102.607 96.722C102.392 96.498 102.136 96.3113 101.837 96.162C101.538 96.0127 101.212 95.938 100.857 95.938C100.465 95.938 100.18 96.008 100.003 96.148C99.8351 96.288 99.7511 96.47 99.7511 96.694C99.7511 96.9367 99.8211 97.1233 99.9611 97.254C100.11 97.3753 100.358 97.464 100.703 97.52L101.445 97.618C103.022 97.842 103.811 98.5607 103.811 99.774C103.811 100.129 103.736 100.455 103.587 100.754C103.447 101.043 103.246 101.295 102.985 101.51C102.724 101.715 102.406 101.879 102.033 102C101.669 102.112 101.258 102.168 100.801 102.168Z" fill="white"/>
</svg>
