<svg width="81" height="106" viewBox="0 0 81 106" fill="none" xmlns="http://www.w3.org/2000/svg">
<g clip-path="url(#clip0_2442_16173)">
<path d="M66.5 16H50.5V20H66.5V62H50.5V66H70.5V20C70.5 18.9391 70.0786 17.9217 69.3284 17.1716C68.5783 16.4214 67.5609 16 66.5 16Z" fill="white"/>
<path d="M44.26 6H16.74C15.6155 6 14.537 6.44671 13.7419 7.24187C12.9467 8.03702 12.5 9.11548 12.5 10.24V66H48.5V10.24C48.5 9.11548 48.0533 8.03702 47.2581 7.24187C46.463 6.44671 45.3845 6 44.26 6ZM44.5 62H38.5V56H22.5V62H16.5V10.24C16.5 10.2085 16.5062 10.1773 16.5183 10.1482C16.5303 10.119 16.548 10.0926 16.5703 10.0703C16.5926 10.048 16.619 10.0303 16.6482 10.0183C16.6773 10.0062 16.7085 10 16.74 10H44.26C44.2915 10 44.3227 10.0062 44.3518 10.0183C44.381 10.0303 44.4074 10.048 44.4297 10.0703C44.452 10.0926 44.4697 10.119 44.4817 10.1482C44.4938 10.1773 44.5 10.2085 44.5 10.24V62Z" fill="white"/>
<path d="M20.5 16H24.5V20H20.5V16Z" fill="white"/>
<path d="M28.5 16H32.5V20H28.5V16Z" fill="white"/>
<path d="M36.5 16H40.5V20H36.5V16Z" fill="white"/>
<path d="M20.5 26H24.5V30H20.5V26Z" fill="white"/>
<path d="M28.5 26H32.5V30H28.5V26Z" fill="white"/>
<path d="M36.5 26H40.5V30H36.5V26Z" fill="white"/>
<path d="M20.5 36H24.5V40H20.5V36Z" fill="white"/>
<path d="M28.5 36H32.5V40H28.5V36Z" fill="white"/>
<path d="M36.5 36H40.5V40H36.5V36Z" fill="white"/>
<path d="M20.5 46H24.5V50H20.5V46Z" fill="white"/>
<path d="M28.5 46H32.5V50H28.5V46Z" fill="white"/>
<path d="M36.5 46H40.5V50H36.5V46Z" fill="white"/>
<path d="M50.5 26H54.5V30H50.5V26Z" fill="white"/>
<path d="M58.5 26H62.5V30H58.5V26Z" fill="white"/>
<path d="M50.5 36H54.5V40H50.5V36Z" fill="white"/>
<path d="M58.5 36H62.5V40H58.5V36Z" fill="white"/>
<path d="M50.5 46H54.5V50H50.5V46Z" fill="white"/>
<path d="M58.5 46H62.5V50H58.5V46Z" fill="white"/>
</g>
<path d="M7.196 102L6.412 99.508H2.94L2.17 102H0.294L3.57 92.228H5.866L9.114 102H7.196ZM4.704 93.908H4.634L3.388 97.926H5.964L4.704 93.908ZM10.4423 102V94.692H12.2343V96.204H12.3043C12.3509 96.008 12.4209 95.8213 12.5143 95.644C12.6169 95.4573 12.7476 95.294 12.9062 95.154C13.0649 95.014 13.2516 94.902 13.4663 94.818C13.6903 94.734 13.9469 94.692 14.2363 94.692H14.6283V96.386H14.0683C13.4616 96.386 13.0043 96.4747 12.6963 96.652C12.3883 96.8293 12.2343 97.1187 12.2343 97.52V102H10.4423ZM18.754 102.168C18.2127 102.168 17.732 102.079 17.312 101.902C16.892 101.725 16.5373 101.468 16.248 101.132C15.968 100.796 15.7533 100.395 15.604 99.928C15.4547 99.452 15.38 98.92 15.38 98.332C15.38 97.744 15.4547 97.2167 15.604 96.75C15.7533 96.2833 15.968 95.8867 16.248 95.56C16.5373 95.224 16.892 94.9673 17.312 94.79C17.732 94.6127 18.2127 94.524 18.754 94.524C19.4913 94.524 20.098 94.6873 20.574 95.014C21.0593 95.3407 21.4093 95.7933 21.624 96.372L20.154 97.03C20.07 96.722 19.9113 96.47 19.678 96.274C19.454 96.0687 19.146 95.966 18.754 95.966C18.25 95.966 17.872 96.1247 17.62 96.442C17.3773 96.7593 17.256 97.1747 17.256 97.688V99.018C17.256 99.5313 17.3773 99.9467 17.62 100.264C17.872 100.572 18.25 100.726 18.754 100.726C19.1833 100.726 19.5147 100.619 19.748 100.404C19.9813 100.18 20.1633 99.9047 20.294 99.578L21.666 100.236C21.4233 100.88 21.0547 101.365 20.56 101.692C20.0653 102.009 19.4633 102.168 18.754 102.168ZM23.0477 91.64H24.8397V95.91H24.9097C25.0591 95.518 25.2924 95.1913 25.6097 94.93C25.9364 94.6593 26.3844 94.524 26.9537 94.524C27.7097 94.524 28.2884 94.7713 28.6897 95.266C29.0911 95.7607 29.2917 96.4653 29.2917 97.38V102H27.4997V97.562C27.4997 97.0393 27.4064 96.6473 27.2197 96.386C27.0331 96.1247 26.7251 95.994 26.2957 95.994C26.1091 95.994 25.9271 96.022 25.7497 96.078C25.5817 96.1247 25.4277 96.1993 25.2877 96.302C25.1571 96.3953 25.0497 96.5167 24.9657 96.666C24.8817 96.806 24.8397 96.974 24.8397 97.17V102H23.0477V91.64ZM32.1742 93.628C31.8009 93.628 31.5302 93.544 31.3622 93.376C31.2035 93.208 31.1242 92.9933 31.1242 92.732V92.452C31.1242 92.1907 31.2035 91.976 31.3622 91.808C31.5302 91.64 31.8009 91.556 32.1742 91.556C32.5382 91.556 32.8042 91.64 32.9722 91.808C33.1402 91.976 33.2242 92.1907 33.2242 92.452V92.732C33.2242 92.9933 33.1402 93.208 32.9722 93.376C32.8042 93.544 32.5382 93.628 32.1742 93.628ZM31.2782 94.692H33.0702V102H31.2782V94.692ZM37.4293 102C36.8133 102 36.342 101.841 36.0153 101.524C35.698 101.197 35.5393 100.735 35.5393 100.138V96.12H34.4613V94.692H35.0213C35.292 94.692 35.474 94.6313 35.5673 94.51C35.67 94.3793 35.7213 94.188 35.7213 93.936V92.69H37.3313V94.692H38.8293V96.12H37.3313V100.572H38.7173V102H37.4293ZM43.283 102.168C42.7416 102.168 42.2563 102.079 41.827 101.902C41.407 101.715 41.0476 101.459 40.749 101.132C40.4596 100.796 40.2356 100.395 40.077 99.928C39.9183 99.452 39.839 98.92 39.839 98.332C39.839 97.7533 39.9136 97.2307 40.063 96.764C40.2216 96.2973 40.4456 95.9007 40.735 95.574C41.0243 95.238 41.379 94.9813 41.799 94.804C42.219 94.6173 42.695 94.524 43.227 94.524C43.7963 94.524 44.291 94.622 44.711 94.818C45.131 95.014 45.4763 95.28 45.747 95.616C46.0176 95.952 46.2183 96.344 46.349 96.792C46.489 97.2307 46.559 97.702 46.559 98.206V98.794H41.701V98.976C41.701 99.508 41.8503 99.9373 42.149 100.264C42.4476 100.581 42.891 100.74 43.479 100.74C43.927 100.74 44.291 100.647 44.571 100.46C44.8603 100.273 45.117 100.035 45.341 99.746L46.307 100.824C46.0083 101.244 45.5976 101.575 45.075 101.818C44.5616 102.051 43.9643 102.168 43.283 102.168ZM43.255 95.868C42.779 95.868 42.401 96.0267 42.121 96.344C41.841 96.6613 41.701 97.072 41.701 97.576V97.688H44.697V97.562C44.697 97.058 44.571 96.652 44.319 96.344C44.0763 96.0267 43.7216 95.868 43.255 95.868ZM51.0196 102.168C50.4783 102.168 49.9976 102.079 49.5776 101.902C49.1576 101.725 48.8029 101.468 48.5136 101.132C48.2336 100.796 48.0189 100.395 47.8696 99.928C47.7203 99.452 47.6456 98.92 47.6456 98.332C47.6456 97.744 47.7203 97.2167 47.8696 96.75C48.0189 96.2833 48.2336 95.8867 48.5136 95.56C48.8029 95.224 49.1576 94.9673 49.5776 94.79C49.9976 94.6127 50.4783 94.524 51.0196 94.524C51.7569 94.524 52.3636 94.6873 52.8396 95.014C53.3249 95.3407 53.6749 95.7933 53.8896 96.372L52.4196 97.03C52.3356 96.722 52.1769 96.47 51.9436 96.274C51.7196 96.0687 51.4116 95.966 51.0196 95.966C50.5156 95.966 50.1376 96.1247 49.8856 96.442C49.6429 96.7593 49.5216 97.1747 49.5216 97.688V99.018C49.5216 99.5313 49.6429 99.9467 49.8856 100.264C50.1376 100.572 50.5156 100.726 51.0196 100.726C51.4489 100.726 51.7803 100.619 52.0136 100.404C52.2469 100.18 52.4289 99.9047 52.5596 99.578L53.9316 100.236C53.6889 100.88 53.3203 101.365 52.8256 101.692C52.3309 102.009 51.7289 102.168 51.0196 102.168ZM57.5953 102C56.9793 102 56.508 101.841 56.1813 101.524C55.864 101.197 55.7053 100.735 55.7053 100.138V96.12H54.6273V94.692H55.1873C55.458 94.692 55.64 94.6313 55.7333 94.51C55.836 94.3793 55.8873 94.188 55.8873 93.936V92.69H57.4973V94.692H58.9953V96.12H57.4973V100.572H58.8833V102H57.5953ZM64.9177 100.782H64.8477C64.7823 100.969 64.6937 101.146 64.5817 101.314C64.479 101.473 64.3437 101.617 64.1757 101.748C64.017 101.879 63.821 101.981 63.5877 102.056C63.3637 102.131 63.1023 102.168 62.8037 102.168C62.0477 102.168 61.469 101.921 61.0677 101.426C60.6663 100.931 60.4657 100.227 60.4657 99.312V94.692H62.2577V99.13C62.2577 99.634 62.3557 100.021 62.5517 100.292C62.7477 100.553 63.0603 100.684 63.4897 100.684C63.667 100.684 63.8397 100.661 64.0077 100.614C64.185 100.567 64.339 100.497 64.4697 100.404C64.6003 100.301 64.7077 100.18 64.7917 100.04C64.8757 99.8907 64.9177 99.718 64.9177 99.522V94.692H66.7097V102H64.9177V100.782ZM68.7801 102V94.692H70.5721V96.204H70.6421C70.6888 96.008 70.7588 95.8213 70.8521 95.644C70.9548 95.4573 71.0855 95.294 71.2441 95.154C71.4028 95.014 71.5895 94.902 71.8041 94.818C72.0281 94.734 72.2848 94.692 72.5741 94.692H72.9661V96.386H72.4061C71.7995 96.386 71.3421 96.4747 71.0341 96.652C70.7261 96.8293 70.5721 97.1187 70.5721 97.52V102H68.7801ZM77.1619 102.168C76.6205 102.168 76.1352 102.079 75.7059 101.902C75.2859 101.715 74.9265 101.459 74.6279 101.132C74.3385 100.796 74.1145 100.395 73.9559 99.928C73.7972 99.452 73.7179 98.92 73.7179 98.332C73.7179 97.7533 73.7925 97.2307 73.9419 96.764C74.1005 96.2973 74.3245 95.9007 74.6139 95.574C74.9032 95.238 75.2579 94.9813 75.6779 94.804C76.0979 94.6173 76.5739 94.524 77.1059 94.524C77.6752 94.524 78.1699 94.622 78.5899 94.818C79.0099 95.014 79.3552 95.28 79.6259 95.616C79.8965 95.952 80.0972 96.344 80.2279 96.792C80.3679 97.2307 80.4379 97.702 80.4379 98.206V98.794H75.5799V98.976C75.5799 99.508 75.7292 99.9373 76.0279 100.264C76.3265 100.581 76.7699 100.74 77.3579 100.74C77.8059 100.74 78.1699 100.647 78.4499 100.46C78.7392 100.273 78.9959 100.035 79.2199 99.746L80.1859 100.824C79.8872 101.244 79.4765 101.575 78.9539 101.818C78.4405 102.051 77.8432 102.168 77.1619 102.168ZM77.1339 95.868C76.6579 95.868 76.2799 96.0267 75.9999 96.344C75.7199 96.6613 75.5799 97.072 75.5799 97.576V97.688H78.5759V97.562C78.5759 97.058 78.4499 96.652 78.1979 96.344C77.9552 96.0267 77.6005 95.868 77.1339 95.868Z" fill="white"/>
<defs>
<clipPath id="clip0_2442_16173">
<rect width="72" height="72" fill="white" transform="translate(4.5)"/>
</clipPath>
</defs>
</svg>
