<svg width="16" height="16" viewBox="0 0 16 16" fill="none" xmlns="http://www.w3.org/2000/svg">
<path d="M8.0026 10.6654C9.47536 10.6654 10.6693 9.47146 10.6693 7.9987C10.6693 6.52594 9.47536 5.33203 8.0026 5.33203C6.52984 5.33203 5.33594 6.52594 5.33594 7.9987C5.33594 9.47146 6.52984 10.6654 8.0026 10.6654Z" fill="#939CA3"/>
<path d="M8.66927 2.71136V1.33203H7.33594V2.71136C6.1628 2.86115 5.07258 3.39615 4.23632 4.23241C3.40005 5.06868 2.86506 6.1589 2.71527 7.33203H1.33594V8.66536H2.71527C2.86484 9.83859 3.39976 10.9289 4.23607 11.7652C5.07238 12.6015 6.16272 13.1365 7.33594 13.286V14.6654H8.66927V13.286C9.84254 13.1366 10.9329 12.6017 11.7693 11.7654C12.6056 10.929 13.1405 9.83863 13.2899 8.66536H14.6693V7.33203H13.2899C13.1404 6.15881 12.6054 5.06847 11.7691 4.23216C10.9328 3.39586 9.84249 2.86093 8.66927 2.71136ZM8.0026 11.9987C5.7966 11.9987 4.0026 10.2047 4.0026 7.9987C4.0026 5.7927 5.7966 3.9987 8.0026 3.9987C10.2086 3.9987 12.0026 5.7927 12.0026 7.9987C12.0026 10.2047 10.2086 11.9987 8.0026 11.9987Z" fill="#939CA3"/>
</svg>
