<svg width="16" height="17" viewBox="0 0 16 17" fill="none" xmlns="http://www.w3.org/2000/svg">
<path d="M8.00065 11.1663C9.47341 11.1663 10.6673 9.97243 10.6673 8.49967C10.6673 7.02692 9.47341 5.83301 8.00065 5.83301C6.52789 5.83301 5.33398 7.02692 5.33398 8.49967C5.33398 9.97243 6.52789 11.1663 8.00065 11.1663Z" fill="#939CA3"/>
<path d="M8.66732 3.21234V1.83301H7.33398V3.21234C6.16085 3.36213 5.07063 3.89712 4.23436 4.73339C3.3981 5.56965 2.86311 6.65987 2.71332 7.83301H1.33398V9.16634H2.71332C2.86289 10.3396 3.39781 11.4299 4.23412 12.2662C5.07042 13.1025 6.16076 13.6374 7.33398 13.787V15.1663H8.66732V13.787C9.84058 13.6375 10.931 13.1027 11.7673 12.2663C12.6036 11.43 13.1385 10.3396 13.288 9.16634H14.6673V7.83301H13.288C13.1384 6.65979 12.6035 5.56945 11.7672 4.73314C10.9309 3.89683 9.84054 3.36191 8.66732 3.21234ZM8.00065 12.4997C5.79465 12.4997 4.00065 10.7057 4.00065 8.49967C4.00065 6.29367 5.79465 4.49967 8.00065 4.49967C10.2067 4.49967 12.0007 6.29367 12.0007 8.49967C12.0007 10.7057 10.2067 12.4997 8.00065 12.4997Z" fill="#939CA3"/>
</svg>
