<svg width="24" height="24" viewBox="0 0 24 24" fill="none" xmlns="http://www.w3.org/2000/svg">
<path d="M24 12C24 18.6274 18.6274 24 12 24C5.37258 24 0 18.6274 0 12C0 5.37258 5.37258 0 12 0C18.6274 0 24 5.37258 24 12ZM2.52149 12C2.52149 17.2348 6.76516 21.4785 12 21.4785C17.2348 21.4785 21.4785 17.2348 21.4785 12C21.4785 6.76516 17.2348 2.52149 12 2.52149C6.76516 2.52149 2.52149 6.76516 2.52149 12Z" fill="#939CA3"/>
<path d="M24 12C24 10.4241 23.6896 8.86371 23.0866 7.4078C22.4835 5.95189 21.5996 4.62902 20.4853 3.51472C19.371 2.40041 18.0481 1.5165 16.5922 0.913445C15.1363 0.310389 13.5759 -2.5674e-07 12 0V2.52149C13.2447 2.52149 14.4773 2.76665 15.6273 3.24299C16.7773 3.71933 17.8222 4.41752 18.7023 5.29768C19.5825 6.17784 20.2807 7.22274 20.757 8.37273C21.2333 9.52272 21.4785 10.7553 21.4785 12H24Z" fill="#3C5858"/>
</svg>
