<svg width="22" height="21" viewBox="0 0 22 21" fill="none" xmlns="http://www.w3.org/2000/svg">
<path fill-rule="evenodd" clip-rule="evenodd" d="M20.8544 10.7395C20.8544 9.99498 20.7867 9.27907 20.661 8.5918H10.64V12.6534H16.3663C16.1196 13.9659 15.37 15.0779 14.2431 15.8225V18.457H17.6818C19.6937 16.6291 20.8544 13.9373 20.8544 10.7395Z" fill="white"/>
<path fill-rule="evenodd" clip-rule="evenodd" d="M10.64 20.9991C13.5128 20.9991 15.9213 20.0589 17.6817 18.4553L14.2431 15.8207C13.2903 16.4507 12.0716 16.823 10.64 16.823C7.86877 16.823 5.52313 14.976 4.68644 12.4941H1.13171V15.2146C2.88248 18.6462 6.48073 20.9991 10.64 20.9991Z" fill="white"/>
<path fill-rule="evenodd" clip-rule="evenodd" d="M4.68643 12.4956C4.47364 11.8656 4.35273 11.1927 4.35273 10.5006C4.35273 9.80857 4.47364 9.13561 4.68643 8.50561V5.78516H1.13171C0.411091 7.20266 0 8.80629 0 10.5006C0 12.1949 0.411091 13.7986 1.13171 15.2161L4.68643 12.4956Z" fill="white"/>
<path fill-rule="evenodd" clip-rule="evenodd" d="M10.64 4.17614C12.2021 4.17614 13.6047 4.70591 14.7074 5.74636L17.7591 2.73477C15.9165 1.04045 13.508 0 10.64 0C6.48073 0 2.88248 2.35295 1.13171 5.78455L4.68644 8.505C5.52313 6.02318 7.86877 4.17614 10.64 4.17614Z" fill="white"/>
</svg>
