<svg width="36" height="36" viewBox="0 0 36 36" fill="none" xmlns="http://www.w3.org/2000/svg">
<path fill-rule="evenodd" clip-rule="evenodd" d="M8.3999 11.8C8.3999 11.2478 8.84762 10.8 9.3999 10.8H26.5999C27.1522 10.8 27.5999 11.2478 27.5999 11.8V12.2C27.5999 12.7523 27.1522 13.2 26.5999 13.2H9.3999C8.84762 13.2 8.3999 12.7523 8.3999 12.2V11.8ZM8.3999 17.8C8.3999 17.2478 8.84762 16.8 9.3999 16.8H26.5999C27.1522 16.8 27.5999 17.2478 27.5999 17.8V18.2C27.5999 18.7523 27.1522 19.2 26.5999 19.2H9.3999C8.84762 19.2 8.3999 18.7523 8.3999 18.2V17.8ZM9.3999 22.8C8.84762 22.8 8.3999 23.2478 8.3999 23.8V24.2C8.3999 24.7523 8.84762 25.2 9.3999 25.2H26.5999C27.1522 25.2 27.5999 24.7523 27.5999 24.2V23.8C27.5999 23.2478 27.1522 22.8 26.5999 22.8H9.3999Z" fill="black"/>
<mask id="mask0_2688_4694" style="mask-type:alpha" maskUnits="userSpaceOnUse" x="8" y="10" width="20" height="16">
<path fill-rule="evenodd" clip-rule="evenodd" d="M8.3999 11.8C8.3999 11.2478 8.84762 10.8 9.3999 10.8H26.5999C27.1522 10.8 27.5999 11.2478 27.5999 11.8V12.2C27.5999 12.7523 27.1522 13.2 26.5999 13.2H9.3999C8.84762 13.2 8.3999 12.7523 8.3999 12.2V11.8ZM8.3999 17.8C8.3999 17.2478 8.84762 16.8 9.3999 16.8H26.5999C27.1522 16.8 27.5999 17.2478 27.5999 17.8V18.2C27.5999 18.7523 27.1522 19.2 26.5999 19.2H9.3999C8.84762 19.2 8.3999 18.7523 8.3999 18.2V17.8ZM9.3999 22.8C8.84762 22.8 8.3999 23.2478 8.3999 23.8V24.2C8.3999 24.7523 8.84762 25.2 9.3999 25.2H26.5999C27.1522 25.2 27.5999 24.7523 27.5999 24.2V23.8C27.5999 23.2478 27.1522 22.8 26.5999 22.8H9.3999Z" fill="white"/>
</mask>
<g mask="url(#mask0_2688_4694)">
<rect width="36" height="36" fill="#F36C25"/>
</g>
</svg>
