<svg width="15" height="20" viewBox="0 0 15 20" fill="none" xmlns="http://www.w3.org/2000/svg">
<path d="M1.4 0.400391C1.16131 0.400391 0.932387 0.495212 0.763604 0.663994C0.594821 0.832777 0.5 1.0617 0.5 1.30039C0.5 1.53909 0.594821 1.768 0.763604 1.93679C0.932387 2.10557 1.16131 2.20039 1.4 2.20039H14C14.2387 2.20039 14.4676 2.10557 14.6364 1.93679C14.8052 1.768 14.9 1.53909 14.9 1.30039C14.9 1.0617 14.8052 0.832777 14.6364 0.663994C14.4676 0.495212 14.2387 0.400391 14 0.400391H1.4ZM8.5952 18.8204C8.56412 19.0463 8.44845 19.252 8.27156 19.3959C8.09467 19.5398 7.86975 19.6112 7.64226 19.5956C7.41476 19.5801 7.20164 19.4788 7.04597 19.3121C6.89029 19.1455 6.80367 18.926 6.8036 18.698V6.46999L3.236 10.0328L3.1352 10.1204C2.95256 10.2562 2.72527 10.3177 2.49908 10.2926C2.2729 10.2675 2.06461 10.1577 1.91616 9.98518C1.76771 9.81269 1.69011 9.59037 1.69898 9.36297C1.70786 9.13557 1.80255 8.91998 1.964 8.75959L7.112 3.61639C7.20186 3.53768 7.30678 3.47807 7.4204 3.44119L7.5164 3.41359C7.57597 3.40091 7.6367 3.39447 7.6976 3.39439L7.7696 3.39679L7.8536 3.40639L7.9976 3.44239L8.1068 3.48799L8.1512 3.51199L8.2592 3.58399L8.3456 3.65839L13.436 8.75839L13.5236 8.86039C13.6515 9.03389 13.7129 9.24754 13.6966 9.46247C13.6803 9.67741 13.5874 9.87936 13.4348 10.0316L13.334 10.1192C13.1605 10.2471 12.9469 10.3085 12.7319 10.2922C12.517 10.2759 12.315 10.183 12.1628 10.0304L8.6036 6.46639V18.698L8.5952 18.8192V18.8204Z" fill="#F36C25"/>
</svg>
