<svg width="30" height="30" viewBox="0 0 30 30" fill="none" xmlns="http://www.w3.org/2000/svg">
<path d="M15 13.4142L8.70711 19.7071C8.31658 20.0976 7.68342 20.0976 7.29289 19.7071C6.90237 19.3166 6.90237 18.6834 7.29289 18.2929L14.2929 11.2929C14.6834 10.9024 15.3166 10.9024 15.7071 11.2929L22.7071 18.2929C23.0976 18.6834 23.0976 19.3166 22.7071 19.7071C22.3166 20.0976 21.6834 20.0976 21.2929 19.7071L15 13.4142Z" fill="black"/>
<mask id="mask0_1404_8369" style="mask-type:alpha" maskUnits="userSpaceOnUse" x="7" y="11" width="16" height="9">
<path d="M15 13.4142L8.70711 19.7071C8.31658 20.0976 7.68342 20.0976 7.29289 19.7071C6.90237 19.3166 6.90237 18.6834 7.29289 18.2929L14.2929 11.2929C14.6834 10.9024 15.3166 10.9024 15.7071 11.2929L22.7071 18.2929C23.0976 18.6834 23.0976 19.3166 22.7071 19.7071C22.3166 20.0976 21.6834 20.0976 21.2929 19.7071L15 13.4142Z" fill="white"/>
</mask>
<g mask="url(#mask0_1404_8369)">
<rect width="30" height="30" fill="#F36C25"/>
</g>
</svg>
