<svg width="30" height="30" viewBox="0 0 30 30" fill="none" xmlns="http://www.w3.org/2000/svg">
<path d="M15 1C22.732 1 29 7.26801 29 15C29 22.732 22.732 29 15 29C7.26801 29 1 22.732 1 15C1 7.26801 7.26801 1 15 1ZM15 26.0583C21.1073 26.0583 26.0583 21.1073 26.0583 15C26.0583 8.89269 21.1073 3.94173 15 3.94173C8.89269 3.94173 3.94173 8.89269 3.94173 15C3.94173 21.1073 8.89269 26.0583 15 26.0583Z" fill="#CED4DA"/>
<path d="M15 1C13.1615 1 11.341 1.36212 9.64243 2.06569C7.94387 2.76925 6.40052 3.80049 5.1005 5.10051C3.80048 6.40053 2.76925 7.94387 2.06569 9.64243C1.36212 11.341 1 13.1615 1 15H3.94173C3.94173 13.5478 4.22776 12.1098 4.78349 10.7682C5.33922 9.42653 6.15377 8.20748 7.18062 7.18063C8.20748 6.15377 9.42653 5.33922 10.7682 4.78349C12.1098 4.22776 13.5478 3.94173 15 3.94173V1Z" fill="#F36C25"/>
</svg>
